Coordinates
version=1
nRows=4
nColumns=63
inDegrees=yes

Units are S.I. units (second, meters, Newtons, ...)
If the header above contains a line with 'inDegrees', this indicates whether rotational values are in degrees (yes) or radians (no).

endheader
time	pelvis_tilt	pelvis_list	pelvis_rotation	pelvis_tx	pelvis_ty	pelvis_tz	hip_flexion_r	hip_adduction_r	hip_rotation_r	knee_angle_r	knee_angle_r_beta	ankle_angle_r	subtalar_angle_r	mtp_angle_r	hip_flexion_l	hip_adduction_l	hip_rotation_l	knee_angle_l	knee_angle_l_beta	ankle_angle_l	subtalar_angle_l	mtp_angle_l	L5_S1_Flex_Ext	L5_S1_Lat_Bending	L5_S1_axial_rotation	L4_L5_Flex_Ext	L4_L5_Lat_Bending	L4_L5_axial_rotation	L3_L4_Flex_Ext	L3_L4_Lat_Bending	L3_L4_axial_rotation	L2_L3_Flex_Ext	L2_L3_Lat_Bending	L2_L3_axial_rotation	L1_L2_Flex_Ext	L1_L2_Lat_Bending	L1_L2_axial_rotation	L1_T12_Flex_Ext	L1_T12_Lat_Bending	L1_T12_axial_rotation	Abs_r3	Abs_r2	Abs_r1	Abs_t1	Abs_t2	neck_flexion	neck_bending	neck_rotation	arm_flex_r	arm_add_r	arm_rot_r	elbow_flex_r	pro_sup_r	wrist_flex_r	wrist_dev_r	arm_flex_l	arm_add_l	arm_rot_l	elbow_flex_l	pro_sup_l	wrist_flex_l	wrist_dev_l
     11.65800000	    -61.23942859	      1.05218709	     -4.56133831	     -0.26448170	      1.09736820	     -0.02599741	    127.35707993	     -6.55306288	     -5.21601108	    105.15207099	      1.83524985	     27.11507930	      9.22915138	      0.00000000	     93.83692234	    -11.13108952	     -4.05956931	     59.27971750	      1.03462625	      7.12616179	      8.62913267	      0.00000000	     -0.09897076	      0.36965441	      0.58569767	     -0.18379860	      0.49164037	      0.62230378	     -0.16259906	      0.89877773	      0.62230378	     -0.11311368	      0.89877773	      0.51248546	     -0.09190425	      0.75379927	      0.47587936	     -0.05655189	      0.57259468	      0.43927325	     -0.70693824	      4.18160462	      3.25747475	      0.00000000	      0.00000000	      0.00000000	      0.00000000	      0.00000000	     66.10620595	    -18.47928272	     25.15421193	     53.25913872	     50.60805733	      0.00000000	      5.00000014	     57.47157541	    -20.63531650	     11.08806825	     57.26468533	     52.07329663	      0.00000000	      5.00000014
     11.66700000	    -61.31594345	      0.71372536	     -4.19365799	     -0.26486504	      1.09782014	     -0.02672247	    127.07133526	     -6.77086526	     -5.43005777	    103.42396333	      1.80508869	     27.20266311	      8.66799189	      0.00000000	     94.40989717	    -10.81656083	     -3.33800320	     61.20894059	      1.06829754	      7.27414060	      8.72694127	      0.00000000	     -0.10020788	      0.40863546	      0.54843978	     -0.18609606	      0.54348517	      0.58271727	     -0.16463153	      0.99355626	      0.58271727	     -0.11452759	      0.99355626	      0.47988481	     -0.09305304	      0.83328944	      0.44560732	     -0.05725878	      0.63297633	      0.41132983	     -0.71577488	      4.62256608	      3.05025752	      0.00000000	      0.00000000	      0.00000000	      0.00000000	      0.00000000	     66.11185657	    -18.69963710	     24.95872598	     53.46957739	     50.59641866	      0.00000000	      5.00000014	     57.57760671	    -20.41895357	     11.14469964	     57.23105171	     52.07655111	      0.00000000	      5.00000014
     11.67500000	    -61.34280148	      0.57572306	     -3.60783958	     -0.26528702	      1.09806699	     -0.02754362	    126.77836276	     -7.02030663	     -5.21692848	    101.71161849	      1.77520263	     27.21217153	      8.41082931	      0.00000000	     94.94405725	    -10.29252406	     -2.88799472	     63.18273054	      1.10274668	      7.49418994	      8.70745991	      0.00000000	     -0.09973568	      0.41905558	      0.46945195	     -0.18521912	      0.55734392	      0.49879270	     -0.16385574	      1.01889174	      0.49879270	     -0.11398790	      1.01889174	      0.41077046	     -0.09261455	      0.85453814	      0.38142971	     -0.05698896	      0.64911709	      0.35208896	     -0.71240196	      4.74044053	      2.61095092	      0.00000000	      0.00000000	      0.00000000	      0.00000000	      0.00000000	     66.09073581	    -18.85402157	     24.86781539	     53.58728367	     50.59115829	      0.00000000	      5.00000014	     57.72928347	    -20.25948857	     11.18825908	     57.15343312	     52.07965789	      0.00000000	      5.00000014
     11.68300000	    -61.37199250	      0.42854157	     -2.95775618	     -0.26590132	      1.09831954	     -0.02829742	    126.39054762	     -7.29292470	     -4.96432801	     99.87363536	      1.74312377	     27.18361262	      8.24652566	      0.00000000	     95.53778826	     -9.72876152	     -2.50287467	     65.17466313	      1.13751246	      7.73717932	      8.65635909	      0.00000000	     -0.09973492	      0.42860880	      0.37507379	     -0.18521772	      0.57004970	      0.39851591	     -0.16385450	      1.04211943	      0.39851591	     -0.11398704	      1.04211943	      0.32818957	     -0.09261385	      0.87401906	      0.30474746	     -0.05698853	      0.66391503	      0.28130535	     -0.71239658	      4.84850844	      2.08604792	      0.00000000	      0.00000000	      0.00000000	      0.00000000	      0.00000000	     66.10225731	    -18.98255405	     24.75482240	     53.72265109	     50.58260040	      0.00000000	      5.00000014	     57.93188973	    -20.13536023	     11.23189218	     57.03172372	     52.08358852	      0.00000000	      5.00000014
